<svg version="1.1" xmlns="http://www.w3.org/2000/svg" style="display: block;" viewBox="205 800 1640 605"  preserveAspectRatio="xMidYMid meet">

<path transform="translate(0,0)" fill="rgb(254,79,210)" d="M 1388.99 878.257 C 1469.3 873.729 1538.15 935.001 1542.97 1015.29 C 1547.79 1095.59 1486.77 1164.66 1406.5 1169.77 C 1325.81 1174.91 1256.3 1113.5 1251.46 1032.8 C 1246.61 952.089 1308.27 882.808 1388.99 878.257 z"/>
<path transform="translate(0,0)" fill="rgb(255,255,255)" d="M 603.5 878.406 C 631.883 877.523 653.384 881.857 678.344 895.444 C 709.493 912.086 732.505 940.716 742.058 974.715 C 746.147 988.97 752.453 1033.17 745.575 1045.53 C 740.868 1049.56 683.045 1048.01 671.43 1048 L 546.278 1047.98 C 547.667 1053.24 549.084 1058.05 550.777 1063.22 C 564.218 1103.93 610.066 1118.1 647.926 1103.07 C 665.303 1096.17 676.965 1086.05 691.544 1074.75 C 697.513 1081.1 703.859 1087.46 709.955 1093.72 C 717.44 1102.48 725.62 1110.87 733.281 1119.87 C 709.113 1148.43 663.377 1166.42 626.756 1169.78 C 586.406 1173.72 546.181 1161.14 515.268 1134.91 C 487.268 1111.22 470.907 1075.12 467.84 1038.89 C 460.722 954.803 518.432 884.357 603.5 878.406 z"/>
<path transform="translate(0,0)" fill="rgb(26,27,37)" d="M 602.542 938.2 C 644.525 934.521 664.191 959.528 674.846 996.127 L 620.5 996.113 C 596.351 995.92 572.2 996.163 548.06 996.841 C 554.331 965.201 569.522 944.351 602.542 938.2 z"/>
<path transform="translate(0,0)" fill="rgb(255,255,255)" d="M 1575.13 884.243 C 1597.69 883.371 1625.16 882.808 1647.4 885.608 C 1651.71 886.151 1650.03 925.074 1650.04 930.459 L 1650.18 1019.31 C 1650.14 1034.62 1648.63 1056.06 1653.17 1070.25 C 1666.62 1113.65 1729.71 1111.27 1741.38 1068.8 C 1745.93 1052.22 1743.8 1020.92 1743.75 1002.91 L 1743.63 922.146 C 1743.62 912.705 1742.51 893.667 1746.42 885.791 C 1748.22 884.692 1751.48 883.782 1753.49 883.978 C 1766.12 885.207 1815.48 881.132 1822.46 887.089 C 1825.95 893.37 1824.33 979.309 1824.37 995.25 L 1824.7 1099.29 C 1824.75 1113.45 1826.43 1152.1 1822.18 1163.46 C 1816.84 1167.47 1758.81 1165.73 1748.44 1165.7 C 1746.44 1156.04 1747.35 1142.04 1747.58 1131.84 C 1722.98 1160.97 1697.92 1172.96 1658.73 1170.73 C 1633.16 1169.27 1610.34 1160.48 1593.22 1140.89 C 1577.13 1122.48 1571.2 1099.32 1570.86 1075.24 C 1570.39 1012.96 1571.46 950.648 1570.73 888.376 C 1570.71 886.074 1573.56 885.08 1575.13 884.243 z"/>
<path transform="translate(0,0)" fill="rgb(255,255,255)" d="M 1108.17 879.335 C 1151.11 873.732 1194.02 892.101 1211.8 932.603 C 1222.68 957.377 1221.19 977.136 1221.26 1003.48 L 1221.35 1059.17 C 1221.24 1089.23 1221.37 1119.24 1221.69 1149.28 C 1221.74 1153.77 1221.12 1164.17 1215.4 1164.41 C 1203.93 1164.88 1149.98 1167.71 1142.88 1163.77 C 1140.41 1154.29 1141.73 1126.92 1141.73 1115.31 C 1141.84 1079.73 1142.14 1044.04 1142.01 1008.46 C 1141.94 990.054 1140.02 973.454 1126.36 959.589 C 1116.24 949.32 1103.91 947.326 1090.15 947.831 C 1075.7 948.362 1068.09 951.845 1058.44 962.019 C 1036.81 989.525 1047.72 998.364 1044.85 1025.89 C 1042.6 1047.5 1049.11 1151.25 1042.76 1164.15 C 1034.01 1168.22 1001.66 1163.42 990.007 1165.9 C 987.121 1166.52 968.493 1166.85 967.991 1162.75 C 965.906 1145.71 967.354 1126.68 967.404 1109.27 L 967.546 1004.68 C 967.6 986.256 965.517 896.092 969.388 885.717 C 976.696 882.334 1032.47 883.854 1042.38 885.014 C 1043.29 892.972 1042.57 909.289 1042.43 917.887 L 1043.5 916.454 C 1060.49 893.754 1080.36 883.324 1108.17 879.335 z"/>
<path transform="translate(0,0)" fill="rgb(255,255,255)" d="M 323.613 878.416 C 358.67 874.509 420.745 889.47 447.514 912.452 C 438.458 930.046 425.598 951.35 415.377 968.609 C 408.392 964.597 401.581 959.395 394.569 955.272 C 375.322 943.981 355.412 937.475 332.987 937.22 C 317.236 937.041 298.24 944.383 298.921 962.912 C 299.625 982.047 335.461 989.185 350.205 993.384 C 359.405 995.914 368.511 998.773 377.506 1001.95 C 392.852 1007.43 408.717 1014.46 421.3 1025.01 C 436.875 1037.86 446.672 1056.39 448.514 1076.5 C 453.858 1141.92 398.34 1167.14 342.249 1171.7 C 303.978 1172.83 266.427 1161.89 232.05 1145.72 C 226.185 1142.97 221.204 1140.64 218.952 1134.44 C 220.772 1126.65 244.346 1088.07 249.806 1079.82 C 275.086 1096.4 303.608 1117.04 334.88 1114.93 C 390.767 1111.16 384.562 1071.26 334.077 1058.75 C 288.78 1047.53 234.185 1029.91 227.461 977.12 C 219.612 915.494 267.389 883.329 323.613 878.416 z"/>
<path transform="translate(0,0)" fill="rgb(255,255,255)" d="M 797.194 809.228 C 810.428 809.267 823.662 809.237 836.896 809.138 C 870.831 808.582 871.902 803.506 871.367 838.449 L 870.69 884.142 C 881.618 884.049 923.465 882.268 931.114 885.898 C 934.395 894.04 934.51 941.891 929.996 949.966 C 924.098 951.299 879.807 950.021 870.991 949.887 L 871.272 1026.23 C 871.214 1043.3 868.534 1075.59 876.5 1090.8 C 887.896 1112.57 919.73 1095.11 931.126 1097.96 C 934.186 1103.35 932.883 1136 932.83 1144.31 L 933 1157.89 C 894.702 1174.31 844.07 1175.59 814.299 1142.31 C 796.358 1122.6 792.749 1096.58 793.34 1070.83 C 794.255 1030.98 792.841 990.538 794.588 950.687 C 789.953 950.621 758.098 951.722 757.7 947.402 C 756.336 932.582 754.868 900.348 758.088 886.508 C 761.776 883.543 786.639 884.525 793.781 884.412 C 794.093 862.668 792.653 836.323 794.043 814.246 C 794.166 812.294 795.851 810.647 797.194 809.228 z"/>
<path transform="translate(0,0)" fill="rgb(255,255,255)" d="M 1142.75 1196.19 C 1151.62 1194.99 1171.5 1196.14 1180.51 1196.85 C 1181.31 1256.48 1180.12 1320.37 1179.81 1380.28 C 1170.43 1380.31 1150.75 1383.62 1143.89 1376.93 C 1141.74 1374.84 1142.11 1368.06 1142.09 1364.9 C 1121.25 1383.68 1102.8 1387.44 1076.16 1379.4 C 1054.42 1370.45 1040.14 1351.39 1036.04 1328.48 C 1032.62 1309.37 1037.07 1289.69 1048.38 1273.92 C 1061.74 1255.26 1081.88 1244.08 1105.02 1244.98 C 1120.26 1245.57 1130.27 1251.91 1142.09 1260.39 C 1141.9 1251.39 1140.01 1201.07 1142.75 1196.19 z"/>
<path transform="translate(0,0)" fill="rgb(26,27,37)" d="M 1101.55 1281.45 C 1119.86 1277.98 1137.48 1290.11 1140.78 1308.44 C 1144.09 1326.78 1131.81 1344.29 1113.45 1347.44 C 1095.31 1350.55 1078.06 1338.45 1074.79 1320.34 C 1071.53 1302.23 1083.47 1284.88 1101.55 1281.45 z"/>
<path transform="translate(0,0)" fill="rgb(255,255,255)" d="M 1345.86 1243.31 C 1384.91 1236.64 1421.96 1262.91 1428.58 1301.97 C 1435.21 1341.02 1408.88 1378.04 1369.82 1384.61 C 1330.83 1391.17 1293.89 1364.91 1287.28 1325.92 C 1280.67 1286.94 1306.89 1249.97 1345.86 1243.31 z"/>
<path transform="translate(0,0)" fill="rgb(26,27,37)" d="M 1352.26 1280.52 C 1370.88 1277.65 1388.3 1290.44 1391.12 1309.07 C 1393.95 1327.7 1381.1 1345.09 1362.47 1347.86 C 1343.9 1350.62 1326.6 1337.84 1323.79 1319.28 C 1320.97 1300.72 1333.71 1283.39 1352.26 1280.52 z"/>
<path transform="translate(0,0)" fill="rgb(255,255,255)" d="M 875.074 1249.31 C 884.276 1248.73 894.194 1248.27 903.386 1248.88 C 905.811 1249.04 910.289 1249.23 912.298 1250.87 C 920.578 1257.59 904.577 1323.51 921.126 1340.73 C 925.539 1345.32 932.313 1348.37 938.717 1348.28 C 946.15 1348.17 954.104 1344.47 959.186 1339.08 C 972.801 1324.64 966.536 1277.79 966.881 1258.13 C 966.941 1254.72 967.054 1252.52 969.528 1250.1 C 974.55 1248.58 999.438 1248.31 1004.84 1250.46 C 1007.96 1257.17 1006.76 1292.3 1006.72 1302.01 C 1006.79 1324.13 1007.84 1358.8 1006.21 1379.84 C 993.932 1380.99 981.577 1381.09 969.281 1380.13 L 968.776 1363.79 C 951.612 1382.24 927.578 1389.5 903.955 1379.34 C 891.445 1373.91 881.715 1363.58 877.04 1350.76 C 873.621 1341.42 871.932 1256.29 875.074 1249.31 z"/>
<path transform="translate(0,0)" fill="rgb(255,255,255)" d="M 624.411 1336.75 C 635.357 1344.04 687.608 1362.64 687.532 1339.36 C 679.877 1325.35 623.822 1331.6 612.863 1304.92 C 603.177 1281.34 610.396 1266.23 632.601 1252.82 C 659.175 1239.9 702.43 1243.27 724.534 1263.47 C 719.92 1269.6 710.623 1283.22 706.11 1288.04 C 691.02 1280.7 674.221 1273.03 656.978 1277.35 C 652.976 1278.1 648.048 1284.92 650.252 1288.57 C 653.019 1293.15 662.649 1295.16 667.678 1295.75 C 696.197 1299.07 733.882 1305.73 728.775 1343.74 C 727.071 1356.43 718.212 1365.88 707.911 1373 C 682.257 1388.9 644.178 1385.6 618.205 1372.5 C 613.593 1370.41 608.339 1368.61 605.054 1364.99 C 604.215 1361.45 604.195 1363.33 606.421 1359.24 C 612.869 1352.11 618.877 1344.6 624.411 1336.75 z"/>
<path transform="translate(0,0)" fill="rgb(255,255,255)" d="M 618.205 1372.5 C 613.593 1370.41 608.339 1368.61 605.054 1364.99 C 604.215 1361.45 604.195 1363.33 606.421 1359.24 C 611.513 1360 614.908 1360.31 618.208 1364.36 C 619.47 1367.78 618.91 1368.94 618.205 1372.5 z"/>
<path transform="translate(0,0)" fill="rgb(255,255,255)" d="M 771.873 1211.25 C 783.715 1210.62 800.442 1211.04 812.216 1211.71 L 811.756 1249.21 C 820.36 1249.38 835.266 1247.47 841.644 1251.07 C 845.939 1256.08 844.422 1274.7 844.512 1282.94 L 812.037 1283.04 C 812.033 1294.49 811.947 1307.38 811.796 1318.71 C 811.358 1351.48 818.204 1349.5 844.841 1345.11 L 844.932 1374.25 C 844.88 1375.56 845.16 1377.84 844.172 1378.4 C 826.778 1388.22 796.067 1383.63 783.62 1371.25 C 778.58 1366.18 774.969 1359.86 773.151 1352.95 C 769.922 1340.91 771.22 1297.54 771.285 1283.17 C 763.047 1283.57 758.213 1283.62 750.015 1283.09 C 750.297 1272.03 749.937 1260.97 749.691 1249.91 C 756.011 1249.15 765.37 1249.24 771.983 1249.13 C 771.753 1236.5 771.716 1223.87 771.873 1211.25 z"/>
<path transform="translate(0,0)" fill="rgb(255,255,255)" d="M 1219.94 1249.36 C 1232.03 1249.1 1244.12 1249.45 1256.17 1250.41 C 1254.73 1279.46 1256.07 1310.33 1255.96 1339.51 C 1255.92 1351.98 1256.68 1365.54 1255.9 1377.89 C 1254.04 1380.3 1253.17 1379.83 1249.54 1380.9 C 1242.21 1380.99 1221.8 1382.33 1216.97 1378.35 C 1215.81 1375.02 1215.07 1370.87 1215.11 1366.68 C 1215.49 1328.82 1215.09 1290.59 1215.87 1252.84 C 1215.91 1250.69 1218.28 1250.12 1219.94 1249.36 z"/>
<path transform="translate(0,0)" fill="rgb(255,255,255)" d="M 1233.91 1190.08 C 1246.21 1188.89 1257.16 1197.85 1258.45 1210.14 C 1259.73 1222.43 1250.86 1233.46 1238.58 1234.84 C 1226.16 1236.24 1214.97 1227.25 1213.67 1214.81 C 1212.38 1202.38 1221.46 1191.27 1233.91 1190.08 z"/>
</svg>